<svg xmlns="http://www.w3.org/2000/svg" xmlns:xlink="http://www.w3.org/1999/xlink" version="1.1" x="0px" y="0px"
  viewBox="0 0 100 100" enable-background="new 0 0 100 100" xml:space="preserve">
  <circle fill="#000000" cx="37.281" cy="24.534" r="6.375" />
  <path fill="#000000"
    d="M71.377,91.783c0,0-8.852-28.813-9.141-29.131c2.254-5.701-0.049-32.44-8.648-44.439  C51.005,14.61,37.251,3.104,35.63,3.104c-2.209,0-4,1.791-4,4c0,1.697,19.938,13.71,18.339,22.266c0,0-5.655,0.843-9.606,4.643  c-6.68,6.524-7.541,34.497-6.472,35.718c1.456,1.661,3.983,1.828,5.644,0.373c1.276-1.118-0.613-20.27,3.64-26.687  c2.052,2.558,4.226,5.935,3.477,8.042c-2.586,7.277-2.234,7.888-1.578,10.446c0.07,0.273-7.206,30.331-7.206,30.331  c-0.391,1.61,0.598,3.232,2.208,3.623l2.551,0.619c1.61,0.391,3.232-0.598,3.623-2.208l6.166-25.411  c0.84,0.041,2.805-0.26,2.91-0.283l7.801,25.712c0.48,1.585,2.156,2.48,3.74,2l2.512-0.762  C70.963,95.044,71.858,93.369,71.377,91.783z" />
 </svg>